<svg width="249" height="479" viewBox="0 0 249 479" fill="none" xmlns="http://www.w3.org/2000/svg">
<g filter="url(#filter0_d_344_4)">
<rect x="4.86914" y="0.641602" width="240" height="470" rx="15" fill="#F5F5F5"/>
</g>
<rect x="14.8691" y="30.6416" width="220" height="400" fill="#FF375A"/>
<path d="M234.869 30.6416L14.8691 30.6416L14.8691 430.642H50.8691L234.869 174.642V30.6416Z" fill="#FF4767"/>
<path d="M190.369 30.6416L14.8691 30.6416L14.8691 278.142L190.369 30.6416Z" fill="#FF5875"/>
<rect x="81.22" y="211.642" width="3" height="70.7017" transform="rotate(30 81.22 211.642)" fill="#F5F5F5"/>
<rect x="165.885" y="186.642" width="3" height="85.2216" transform="rotate(25 165.885 186.642)" fill="#F5F5F5"/>
<rect x="177.759" y="190.625" width="3" height="22.3038" transform="rotate(119.5 177.759 190.625)" fill="#F5F5F5"/>
<rect x="174.357" y="175.068" width="3" height="17.1611" transform="rotate(73.8937 174.357 175.068)" fill="#F5F5F5"/>
<rect x="171.669" y="176.232" width="3" height="15.2475" transform="rotate(-12.1344 171.669 176.232)" fill="#F5F5F5"/>
<rect x="80.8691" y="214.763" width="3" height="69.836" transform="rotate(-45 80.8691 214.763)" fill="#F5F5F5"/>
<circle cx="124.869" cy="450.642" r="15" fill="#C4C4C4"/>
<rect x="87.8691" y="12.6416" width="75" height="5" rx="2.5" fill="#C4C4C4"/>
<circle cx="49.3691" cy="272.142" r="11" stroke="#F5F5F5" stroke-width="3"/>
<circle cx="81.3691" cy="212.142" r="6" stroke="#F5F5F5" stroke-width="3"/>
<circle cx="131.369" cy="262.142" r="11" stroke="#F5F5F5" stroke-width="3"/>
<defs>
<filter id="filter0_d_344_4" x="0.869141" y="0.641602" width="248" height="478" filterUnits="userSpaceOnUse" color-interpolation-filters="sRGB">
<feFlood flood-opacity="0" result="BackgroundImageFix"/>
<feColorMatrix in="SourceAlpha" type="matrix" values="0 0 0 0 0 0 0 0 0 0 0 0 0 0 0 0 0 0 127 0" result="hardAlpha"/>
<feOffset dy="4"/>
<feGaussianBlur stdDeviation="2"/>
<feComposite in2="hardAlpha" operator="out"/>
<feColorMatrix type="matrix" values="0 0 0 0 0 0 0 0 0 0 0 0 0 0 0 0 0 0 0.25 0"/>
<feBlend mode="normal" in2="BackgroundImageFix" result="effect1_dropShadow_344_4"/>
<feBlend mode="normal" in="SourceGraphic" in2="effect1_dropShadow_344_4" result="shape"/>
</filter>
</defs>
</svg>
