<svg width="554" height="421" viewBox="0 0 554 421" fill="none" xmlns="http://www.w3.org/2000/svg">
<path d="M119.724 199.63C145.098 199.63 169.391 193.622 189.977 182.255C211.146 170.568 225.366 155.694 233.453 136.782C233.454 136.779 233.454 136.776 233.457 136.773C237.503 127.3 239.311 118.634 239.311 108.677C239.311 58.53 185.622 17.7319 119.634 17.7319C93.4684 17.7319 70.4579 23.414 49.2897 35.1009C-4.09752 64.576 -15.9742 121.564 22.8138 162.134C45.2595 185.613 81.4874 199.63 119.724 199.63ZM186.1 165.402L157.132 135.103L145.545 122.984L211.165 139.186C205.387 149.5 197.222 158.041 186.1 165.402ZM219.516 108.677C219.516 114.484 218.822 119.621 217.269 124.877L129.531 103.213V33.1434C179.98 36.9301 219.516 69.3605 219.516 108.677ZM60.9236 47.2702C76.1046 38.8886 91.8189 34.3017 109.736 33.0973V108.677C109.736 109.069 109.776 109.461 109.857 109.848C109.858 109.854 109.86 109.86 109.861 109.866C109.898 110.039 109.969 110.204 110.021 110.373C110.084 110.579 110.13 110.787 110.216 110.989C110.219 110.996 110.222 111.004 110.225 111.011C110.318 111.226 110.447 111.426 110.564 111.633C110.647 111.78 110.709 111.934 110.808 112.078C110.811 112.083 110.815 112.089 110.819 112.094C111.055 112.446 111.327 112.782 111.631 113.101L170.052 174.209C154.789 181.018 137.575 184.586 119.723 184.586C87.8032 184.586 57.5611 172.887 38.8249 153.292C6.45428 119.432 16.3687 71.8706 60.9236 47.2702Z" fill="white" fill-opacity="0.11"/>
<path d="M320.129 213.785H373.455C378.923 213.785 383.353 210.417 383.353 206.263V25.2531C383.353 21.0994 378.923 17.7319 373.455 17.7319H320.129C314.662 17.7319 310.232 21.0994 310.232 25.2531V206.263C310.232 210.417 314.663 213.785 320.129 213.785ZM330.026 32.7743H363.558V198.742H330.026V32.7743V32.7743Z" fill="white" fill-opacity="0.11"/>
<path d="M405.453 213.785H458.78C464.248 213.785 468.678 210.417 468.678 206.263V116.723C468.678 112.569 464.248 109.202 458.78 109.202H405.453C399.985 109.202 395.555 112.569 395.555 116.723V206.263C395.555 210.417 399.985 213.785 405.453 213.785ZM415.35 124.244H448.883V198.742H415.35V124.244Z" fill="white" fill-opacity="0.11"/>
<path d="M544.103 67.1332H490.776C485.309 67.1332 480.879 70.5007 480.879 74.6544V206.263C480.879 210.417 485.309 213.785 490.776 213.785H544.103C549.57 213.785 554 210.417 554 206.263V74.6544C554 70.5007 549.57 67.1332 544.103 67.1332ZM534.205 198.742H500.674V82.1756H534.205V198.742Z" fill="white" fill-opacity="0.11"/>
<path d="M536.333 288.868C527.782 288.868 520.852 294.135 520.852 300.634C520.852 301.214 520.926 301.781 521.033 302.339L434.738 379.804C434.207 379.762 433.668 379.739 433.123 379.739C432.492 379.739 431.874 379.776 431.263 379.832L346.062 328.324C345.061 323.264 339.831 319.27 333.187 318.477L246.476 240.642C246.476 240.602 246.484 240.563 246.484 240.522C246.484 234.024 239.553 228.757 231.003 228.757C223.459 228.757 217.183 232.86 215.809 238.287L134.528 279.089C132.716 278.523 130.734 278.206 128.654 278.206C126.217 278.206 123.92 278.647 121.87 279.408L43.3896 255.828C41.2056 251.344 35.5444 248.141 28.8829 248.141C20.3329 248.141 13.4022 253.407 13.4022 259.906C13.4022 266.403 20.3329 271.671 28.8829 271.671C31.7689 271.671 34.4596 271.06 36.7703 270.016L113.757 293.148C115.583 298.1 121.552 301.737 128.653 301.737C136.07 301.737 142.263 297.769 143.774 292.475L225.425 251.487C227.158 251.996 229.032 252.286 231.002 252.286C231.801 252.286 232.579 252.226 233.345 252.137L316.074 326.399C315.571 327.56 315.289 328.795 315.289 330.084C315.289 336.581 322.221 341.849 330.769 341.849C332.473 341.849 334.108 341.632 335.64 341.245L417.682 390.844C417.666 391.064 417.638 391.28 417.638 391.503C417.638 398 424.569 403.268 433.12 403.268C441.671 403.268 448.601 398.001 448.601 391.503C448.601 391.227 448.572 390.957 448.547 390.686L535.781 312.377C535.965 312.382 536.144 312.398 536.329 312.398C544.879 312.398 551.809 307.131 551.809 300.634C551.815 294.135 544.884 288.868 536.333 288.868Z" fill="white" fill-opacity="0.11"/>
</svg>
