<svg width="128" height="120" viewBox="0 0 128 120" fill="none" xmlns="http://www.w3.org/2000/svg">
<path d="M65.111 63.9773C62.111 73.144 45.1117 95.9773 16.1109 93.4769C9.89741 92.9411 -1.24545 83.2092 0.113809 73.4773C0.723135 69.1147 5.91644 67.5488 11.6116 61.9773C7.34285 52.5861 3.47932 36.7031 10.1113 25.4773C16.4262 14.7883 39.1113 0.47718 59.1104 13.4768C43.1113 10.4773 30.1411 13.4768 20.6114 22.4772C2.61135 39.4773 15.7649 54.8913 16.111 63.9773C11.6116 67.9773 4.80419 71.1876 4.11426 74.4773C1.50885 86.9 22.6574 88.2408 29.1143 87.9773C47.111 85.4806 60.111 69.6441 65.111 63.9773Z" fill="#F5F5F5"/>
<path d="M46.1143 118.477C43.6143 116.977 46.5143 106.577 40.1143 90.9773C42.9143 90.1773 43.2809 90.644 43.1143 90.9773C51.1143 97.7773 48.1143 109.977 49.6143 115.977C50.1143 119.887 73.7798 102.31 78.1143 95.4769C86.1143 87.4772 101.114 87.8106 107.614 88.9773C108.414 84.1773 107.281 79.8106 104.614 76.9773C105.614 73.4773 107.614 74.4773 108.614 73.9773C110.614 75.4773 115.114 79.4771 115.114 97.4773C113.114 111.077 95.7809 109.644 90.1143 107.977C97.1153 107.311 113.014 103.277 108.614 94.4773C101.781 94.4773 87.9143 95.4773 83.1143 99.4773C76.1143 107.477 60.9168 125.278 46.1143 118.477Z" fill="#F5F5F5"/>
<path d="M65.111 29.977C71.611 10.477 102.111 -9.52286 119.611 22.4772C124.197 34.5968 121.105 47.413 111.611 55.9773C106.613 60.486 102.009 65.3912 91.111 64.9773C99.611 69.9773 124.711 60.9774 127.111 38.9773C128.093 29.977 124.011 4.87718 99.611 0.477179C88.611 -2.52259 67.111 8.77699 65.111 29.977Z" fill="#F5F5F5"/>
</svg>
