<svg width="911" height="643" viewBox="0 0 911 643" fill="none" xmlns="http://www.w3.org/2000/svg">
<g clip-path="url(#clip0_418_359)">
<path d="M423.831 390.834C445.768 378.083 463.751 360.68 475.837 340.507C488.264 319.765 493.084 299.76 490.571 279.345C490.57 279.342 490.569 279.339 490.57 279.335C489.307 269.112 486.515 260.712 481.511 252.104C456.31 208.749 389.391 200.458 332.341 233.62C309.719 246.769 292.681 263.246 280.253 283.988C248.91 336.3 267.281 391.537 321.204 407.12C352.409 416.138 390.774 410.05 423.831 390.834ZM464.015 327.886L423.744 316.249L407.636 311.594L472.511 292.624C472.698 304.446 469.931 315.932 464.015 327.886ZM464.398 262.051C467.316 267.071 469.298 271.862 470.596 277.186L383.856 302.549L348.642 241.97C394.161 219.891 444.639 228.06 464.398 262.051ZM296.427 288.662C305.34 273.787 316.62 261.924 331.505 251.878L369.487 317.221C369.684 317.56 369.916 317.878 370.181 318.172C370.185 318.177 370.189 318.181 370.193 318.186C370.312 318.317 370.456 318.423 370.586 318.544C370.744 318.69 370.889 318.847 371.064 318.978C371.07 318.983 371.078 318.988 371.083 318.993C371.271 319.132 371.484 319.24 371.689 319.36C371.835 319.445 371.966 319.547 372.124 319.622C372.129 319.625 372.135 319.628 372.141 319.631C372.522 319.816 372.926 319.97 373.349 320.093L454.567 343.565C444.793 357.122 431.704 368.858 416.27 377.829C388.674 393.87 356.649 398.954 330.603 391.429C285.6 378.423 270.27 332.321 296.427 288.662Z" fill="white" fill-opacity="0.11"/>
<path d="M604.204 302.359L650.308 275.56C655.034 272.812 657.172 267.675 655.085 264.084L564.118 107.591C562.031 104 556.509 103.315 551.782 106.063L505.678 132.862C500.952 135.609 498.814 140.747 500.902 144.338L591.868 300.83C593.955 304.421 599.479 305.106 604.204 302.359ZM521.795 140.893L550.785 124.041L634.192 267.529L605.202 284.38L521.795 140.893V140.893Z" fill="white" fill-opacity="0.11"/>
<path d="M677.971 259.48L724.075 232.68C728.802 229.932 730.94 224.795 728.852 221.204L683.854 143.791C681.767 140.2 676.244 139.515 671.518 142.263L625.413 169.063C620.686 171.81 618.549 176.948 620.636 180.539L665.634 257.951C667.722 261.542 673.244 262.227 677.971 259.48ZM641.529 177.094L670.52 160.242L707.959 224.649L678.968 241.501L641.529 177.094Z" fill="white" fill-opacity="0.11"/>
<path d="M724.141 63.0139L678.038 89.813C673.311 92.5606 671.174 97.6982 673.261 101.289L739.401 215.072C741.488 218.663 747.011 219.348 751.737 216.6L797.841 189.801C802.567 187.054 804.705 181.916 802.618 178.325L736.478 64.5425C734.39 60.9514 728.868 60.2664 724.141 63.0139ZM781.725 181.77L752.735 198.622L694.154 97.8441L723.144 80.9927L781.725 181.77Z" fill="white" fill-opacity="0.11"/>
<path d="M828.856 258.62C821.463 262.917 818.119 270.953 821.385 276.571C821.677 277.073 822.026 277.526 822.399 277.955L786.722 388.294C786.242 388.524 785.764 388.776 785.293 389.05C784.748 389.367 784.232 389.709 783.732 390.065L684.186 388.351C680.778 384.48 674.249 383.655 668.106 386.308L554.025 362.593C554.005 362.558 553.992 362.52 553.972 362.485C550.706 356.867 542.067 355.796 534.675 360.093C528.153 363.884 524.788 370.585 526.328 375.968L476.561 452.091C474.711 452.513 472.838 453.235 471.04 454.28C468.932 455.505 467.169 457.039 465.778 458.728L386.078 477.782C381.937 475.003 375.432 475.079 369.673 478.426C362.281 482.723 358.936 490.76 362.202 496.378C365.467 501.995 374.107 503.066 381.498 498.77C383.993 497.319 386.013 495.439 387.486 493.375L465.669 474.684C469.737 478.048 476.725 478.192 482.864 474.624C489.277 470.896 492.637 464.353 491.282 459.017L541.276 382.548C543.03 382.117 544.795 381.426 546.499 380.436C547.189 380.035 547.832 379.591 548.449 379.13L657.293 401.758C657.441 403.013 657.818 404.224 658.465 405.338C661.731 410.955 670.371 412.026 677.762 407.729C679.235 406.873 680.539 405.864 681.669 404.76L777.524 406.41C777.621 406.608 777.706 406.809 777.818 407.002C781.083 412.619 789.722 413.691 797.115 409.393C804.508 405.096 807.852 397.06 804.586 391.442C804.448 391.203 804.287 390.985 804.129 390.762L840.194 279.221C840.355 279.133 840.518 279.057 840.678 278.964C848.069 274.667 851.415 266.631 848.149 261.014C844.888 255.393 836.249 254.322 828.856 258.62Z" fill="white" fill-opacity="0.11"/>
</g>
<g filter="url(#filter0_d_418_359)">
<rect y="168.077" width="240" height="470" rx="15" transform="rotate(-21.53 0 168.077)" fill="#F5F5F5"/>
</g>
<rect x="20.3119" y="192.314" width="220" height="400" transform="rotate(-21.53 20.3119 192.314)" fill="#FF375A"/>
<path d="M224.962 111.577L20.3119 192.314L167.107 564.404L200.595 551.193L277.808 245.529L224.962 111.577Z" fill="#FF4767"/>
<path d="M183.567 127.908L20.3119 192.314L111.141 422.545L183.567 127.908Z" fill="#FF5875"/>
<rect x="148.458" y="336.335" width="3" height="70.7018" transform="rotate(8.47005 148.458 336.335)" fill="#F5F5F5"/>
<rect x="218.041" y="282.008" width="3" height="85.2216" transform="rotate(3.47005 218.041 282.008)" fill="#F5F5F5"/>
<rect x="230.548" y="281.356" width="3" height="22.3038" transform="rotate(97.97 230.548 281.356)" fill="#F5F5F5"/>
<rect x="221.674" y="268.133" width="3" height="17.1611" transform="rotate(52.3637 221.674 268.133)" fill="#F5F5F5"/>
<rect x="219.601" y="270.202" width="3" height="15.2475" transform="rotate(-33.6644 219.601 270.202)" fill="#F5F5F5"/>
<rect x="149.277" y="339.367" width="3" height="69.836" transform="rotate(-66.53 149.277 339.367)" fill="#F5F5F5"/>
<circle cx="276.772" cy="542.64" r="15" transform="rotate(-21.53 276.772 542.64)" fill="#C4C4C4"/>
<rect x="81.6126" y="148.78" width="75" height="5" rx="2.5" transform="rotate(-21.53 81.6126 148.78)" fill="#C4C4C4"/>
<circle cx="141.032" cy="404.302" r="11" transform="rotate(-21.53 141.032 404.302)" stroke="#F5F5F5" stroke-width="3"/>
<circle cx="148.78" cy="336.745" r="6" transform="rotate(-21.53 148.78 336.745)" stroke="#F5F5F5" stroke-width="3"/>
<circle cx="213.641" cy="364.907" r="11" transform="rotate(-21.53 213.641 364.907)" stroke="#F5F5F5" stroke-width="3"/>
<defs>
<filter id="filter0_d_418_359" x="0.454193" y="84.4542" width="394.83" height="524.375" filterUnits="userSpaceOnUse" color-interpolation-filters="sRGB">
<feFlood flood-opacity="0" result="BackgroundImageFix"/>
<feColorMatrix in="SourceAlpha" type="matrix" values="0 0 0 0 0 0 0 0 0 0 0 0 0 0 0 0 0 0 127 0" result="hardAlpha"/>
<feOffset dy="4"/>
<feGaussianBlur stdDeviation="2"/>
<feComposite in2="hardAlpha" operator="out"/>
<feColorMatrix type="matrix" values="0 0 0 0 0 0 0 0 0 0 0 0 0 0 0 0 0 0 0.25 0"/>
<feBlend mode="normal" in2="BackgroundImageFix" result="effect1_dropShadow_418_359"/>
<feBlend mode="normal" in="SourceGraphic" in2="effect1_dropShadow_418_359" result="shape"/>
</filter>
<clipPath id="clip0_418_359">
<rect width="554" height="421" fill="white" transform="translate(220 278.412) rotate(-30.1687)"/>
</clipPath>
</defs>
</svg>
