<svg width="500" height="500" viewBox="0 0 500 500" fill="none" xmlns="http://www.w3.org/2000/svg">
<rect width="500" height="500" fill="#F43C5C"/>
<path d="M71.7435 20.4047C61.8643 20.4593 52.1598 23.1094 43.6793 28.0684C35.147 33.0577 28.0458 40.2314 23.1433 48.8138L22.214 50.459L23.8578 51.3522L73.9226 79.8888L73.5932 20.3945L71.7435 20.4047ZM57.2868 66.148L51.9424 63.1018C52.1773 62.3745 52.6714 61.7429 53.3473 61.3477C54.8441 60.4724 56.7737 60.9781 57.649 62.4749C58.3518 63.6769 58.1634 65.1579 57.2868 66.148ZM60.5314 67.9974C62.02 65.8733 62.2353 62.9889 60.8426 60.6073C58.9376 57.3494 54.7374 56.2489 51.4797 58.1538C50.2361 58.8811 49.2738 59.9752 48.6974 61.252L33.7375 52.7251C37.602 46.569 42.9341 41.3991 49.2547 37.7031C55.5792 34.0048 62.6994 31.8956 69.9552 31.5538L70.1875 73.5013L60.5314 67.9974ZM69.9348 27.8511C62.0306 28.1983 54.2719 30.4835 47.3872 34.5093C40.5066 38.5328 34.7081 44.1727 30.5206 50.8913L27.3026 49.0571C31.8311 41.7407 38.1068 35.6127 45.5469 31.2622C52.9377 26.9403 61.3259 24.4961 69.9143 24.147L69.9348 27.8511Z" fill="#FF6C86"/>
<path d="M56.4609 37.8149C53.2031 39.72 52.1025 43.9201 54.0076 47.178C55.9126 50.4358 60.1128 51.5363 63.3706 49.6313C66.6284 47.7263 67.729 43.5261 65.824 40.2683C63.9189 37.0105 59.7186 35.91 56.4609 37.8149ZM61.5031 46.4376C60.0063 47.3128 58.0766 46.8072 57.2013 45.3104C56.326 43.8136 56.8317 41.8839 58.3285 41.0087C59.8253 40.1334 61.755 40.639 62.6302 42.1358C63.5055 43.6326 62.9997 45.5624 61.5031 46.4376Z" fill="#FF6C86"/>
<path d="M45.6322 46.5142L42.4385 48.3817L44.9285 52.64L48.1223 50.7725L45.6322 46.5142Z" fill="#FF6C86"/>
<path d="M64.3597 52.1921L61.166 54.0597L63.6561 58.318L66.8498 56.4505L64.3597 52.1921Z" fill="#FF6C86"/>
<path d="M81.512 264.977C73.9993 258.561 64.9225 254.224 55.2628 252.434C45.5442 250.634 35.481 251.422 26.1611 254.713L24.3825 255.351L25.0429 257.101L44.283 311.421L82.9187 266.178L81.512 264.977ZM40.673 290.149L38.6192 284.35C39.2723 283.953 40.0591 283.798 40.8289 283.941C42.5338 284.256 43.6637 285.9 43.3479 287.605C43.0942 288.974 41.9836 289.972 40.673 290.149ZM41.92 293.669C44.4349 293.034 46.4831 290.992 46.9857 288.279C47.6731 284.568 45.2136 280.99 41.5029 280.303C40.0864 280.04 38.643 280.239 37.3722 280.829L31.623 264.598C38.5714 262.464 45.9859 262.037 53.1853 263.37C60.3892 264.705 67.1567 267.762 72.8716 272.246L45.6309 304.146L41.92 293.669ZM75.2762 269.43C69.067 264.527 61.7012 261.185 53.8594 259.733C46.022 258.281 37.9473 258.759 30.3868 261.107L29.1501 257.616C37.3595 255.038 46.1144 254.502 54.5889 256.072C63.0073 257.632 70.9534 261.264 77.6817 266.614L75.2762 269.43Z" fill="#FF6C86"/>
<path d="M58.5666 268.165C54.8558 267.478 51.2776 269.937 50.5901 273.648C49.9027 277.359 52.3623 280.937 56.073 281.624C59.7838 282.312 63.362 279.852 64.0494 276.142C64.7369 272.431 62.2772 268.853 58.5666 268.165ZM56.747 277.987C55.0421 277.671 53.9121 276.027 54.2279 274.322C54.5438 272.617 56.1877 271.487 57.8926 271.803C59.5975 272.119 60.7275 273.763 60.4117 275.468C60.0958 277.172 58.4518 278.302 56.747 277.987Z" fill="#FF6C86"/>
<path d="M44.6847 267.671L41.0469 266.997L40.1483 271.848L43.7861 272.522L44.6847 267.671Z" fill="#FF6C86"/>
<path d="M55.1475 284.209L51.5098 283.535L50.6112 288.385L54.2489 289.059L55.1475 284.209Z" fill="#FF6C86"/>
<path d="M243.622 346.78C233.858 348.289 224.65 352.339 216.992 358.492C209.287 364.684 203.32 372.825 199.734 382.036L199.057 383.8L200.815 384.441L254.536 405.295L245.45 346.497L243.622 346.78ZM236.058 394.153L230.323 391.927C230.449 391.173 230.844 390.476 231.455 389.985C232.806 388.899 234.789 389.115 235.875 390.467C236.748 391.552 236.779 393.045 236.058 394.153ZM239.54 395.505C240.699 393.185 240.487 390.3 238.759 388.149C236.395 385.208 232.079 384.737 229.137 387.101C228.014 388.004 227.223 389.228 226.841 390.575L210.789 384.344C213.705 377.686 218.218 371.788 223.925 367.201C229.636 362.612 236.368 359.477 243.494 358.071L249.901 399.527L239.54 395.505ZM242.929 354.411C235.162 355.919 227.824 359.321 221.608 364.317C215.394 369.31 210.49 375.742 207.337 383.004L203.884 381.664C207.286 373.76 212.591 366.775 219.309 361.376C225.983 356.013 233.92 352.361 242.363 350.751L242.929 354.411Z" fill="#FF6C86"/>
<path d="M231.069 366.251C228.128 368.615 227.658 372.931 230.022 375.873C232.385 378.815 236.702 379.285 239.644 376.921C242.586 374.557 243.056 370.24 240.692 367.299C238.328 364.357 234.011 363.887 231.069 366.251ZM237.326 374.037C235.975 375.123 233.992 374.907 232.905 373.555C231.819 372.204 232.035 370.221 233.387 369.135C234.739 368.049 236.722 368.264 237.808 369.616C238.894 370.968 238.678 372.951 237.326 374.037Z" fill="#FF6C86"/>
<path d="M221.639 376.45L218.755 378.767L221.845 382.612L224.729 380.295L221.639 376.45Z" fill="#FF6C86"/>
<path d="M240.998 379.308L238.114 381.625L241.204 385.471L244.088 383.153L240.998 379.308Z" fill="#FF6C86"/>
<path d="M387.512 34.9766C379.999 28.561 370.922 24.224 361.263 22.4344C351.544 20.6339 341.481 21.4219 332.161 24.7133L330.383 25.351L331.043 27.1015L350.283 81.4212L388.919 36.1779L387.512 34.9766ZM346.673 60.1486L344.619 54.35C345.272 53.953 346.059 53.798 346.829 53.9406C348.534 54.2565 349.664 55.9004 349.348 57.6053C349.094 58.9744 347.984 59.9721 346.673 60.1486ZM347.92 63.6689C350.435 63.0342 352.483 60.9919 352.986 58.2791C353.673 54.5684 351.214 50.9902 347.503 50.3027C346.086 50.0403 344.643 50.2395 343.372 50.8291L337.623 34.5978C344.571 32.4644 351.986 32.0366 359.185 33.3704C366.389 34.705 373.157 37.7624 378.872 42.246L351.631 74.1457L347.92 63.6689ZM381.276 39.4303C375.067 34.527 367.701 31.1855 359.859 29.7327C352.022 28.2807 343.947 28.7593 336.387 31.1074L335.15 27.6159C343.359 25.0383 352.114 24.5022 360.589 26.0722C369.007 27.6318 376.953 31.2643 383.682 36.6135L381.276 39.4303Z" fill="#FF6C86"/>
<path d="M364.567 38.1651C360.856 37.4776 357.278 39.9372 356.59 43.648C355.903 47.3588 358.362 50.9369 362.073 51.6244C365.784 52.3119 369.362 49.8523 370.049 46.1415C370.737 42.4307 368.277 38.8526 364.567 38.1651ZM362.747 47.9866C361.042 47.6708 359.912 46.0268 360.228 44.3219C360.544 42.617 362.188 41.487 363.893 41.8029C365.598 42.1187 366.728 43.7627 366.412 45.4676C366.096 47.1725 364.452 48.3025 362.747 47.9866Z" fill="#FF6C86"/>
<path d="M350.685 37.6711L347.047 36.9972L346.148 41.8476L349.786 42.5215L350.685 37.6711Z" fill="#FF6C86"/>
<path d="M361.148 54.2087L357.51 53.5348L356.611 58.3852L360.249 59.0591L361.148 54.2087Z" fill="#FF6C86"/>
<path d="M382.512 225.977C374.999 219.561 365.922 215.224 356.263 213.434C346.544 211.634 336.481 212.422 327.161 215.713L325.383 216.351L326.043 218.101L345.283 272.421L383.919 227.178L382.512 225.977ZM341.673 251.149L339.619 245.35C340.272 244.953 341.059 244.798 341.829 244.941C343.534 245.256 344.664 246.9 344.348 248.605C344.094 249.974 342.984 250.972 341.673 251.149ZM342.92 254.669C345.435 254.034 347.483 251.992 347.986 249.279C348.673 245.568 346.214 241.99 342.503 241.303C341.086 241.04 339.643 241.239 338.372 241.829L332.623 225.598C339.571 223.464 346.986 223.037 354.185 224.37C361.389 225.705 368.157 228.762 373.872 233.246L346.631 265.146L342.92 254.669ZM376.276 230.43C370.067 225.527 362.701 222.185 354.859 220.733C347.022 219.281 338.947 219.759 331.387 222.107L330.15 218.616C338.359 216.038 347.114 215.502 355.589 217.072C364.007 218.632 371.953 222.264 378.682 227.614L376.276 230.43Z" fill="#FF6C86"/>
<path d="M359.567 229.165C355.856 228.478 352.278 230.937 351.59 234.648C350.903 238.359 353.362 241.937 357.073 242.624C360.784 243.312 364.362 240.852 365.049 237.142C365.737 233.431 363.277 229.853 359.567 229.165ZM357.747 238.987C356.042 238.671 354.912 237.027 355.228 235.322C355.544 233.617 357.188 232.487 358.893 232.803C360.598 233.119 361.728 234.763 361.412 236.468C361.096 238.172 359.452 239.302 357.747 238.987Z" fill="#FF6C86"/>
<path d="M345.685 228.671L342.047 227.997L341.148 232.848L344.786 233.522L345.685 228.671Z" fill="#FF6C86"/>
<path d="M356.148 245.209L352.51 244.535L351.611 249.385L355.249 250.059L356.148 245.209Z" fill="#FF6C86"/>
<path d="M439.512 127.977C431.999 121.561 422.922 117.224 413.263 115.434C403.544 113.634 393.481 114.422 384.161 117.713L382.383 118.351L383.043 120.101L402.283 174.421L440.919 129.178L439.512 127.977ZM398.673 153.149L396.619 147.35C397.272 146.953 398.059 146.798 398.829 146.941C400.534 147.256 401.664 148.9 401.348 150.605C401.094 151.974 399.984 152.972 398.673 153.149ZM399.92 156.669C402.435 156.034 404.483 153.992 404.986 151.279C405.673 147.568 403.214 143.99 399.503 143.303C398.086 143.04 396.643 143.239 395.372 143.829L389.623 127.598C396.571 125.464 403.986 125.037 411.185 126.37C418.389 127.705 425.157 130.762 430.872 135.246L403.631 167.146L399.92 156.669ZM433.276 132.43C427.067 127.527 419.701 124.185 411.859 122.733C404.022 121.281 395.947 121.759 388.387 124.107L387.15 120.616C395.359 118.038 404.114 117.502 412.589 119.072C421.007 120.632 428.953 124.264 435.682 129.614L433.276 132.43Z" fill="#FF6C86"/>
<path d="M416.567 131.165C412.856 130.478 409.278 132.937 408.59 136.648C407.903 140.359 410.362 143.937 414.073 144.624C417.784 145.312 421.362 142.852 422.049 139.142C422.737 135.431 420.277 131.853 416.567 131.165ZM414.747 140.987C413.042 140.671 411.912 139.027 412.228 137.322C412.544 135.617 414.188 134.487 415.893 134.803C417.598 135.119 418.728 136.763 418.412 138.468C418.096 140.172 416.452 141.302 414.747 140.987Z" fill="#FF6C86"/>
<path d="M402.685 130.671L399.047 129.997L398.148 134.848L401.786 135.522L402.685 130.671Z" fill="#FF6C86"/>
<path d="M413.148 147.209L409.51 146.535L408.611 151.385L412.249 152.059L413.148 147.209Z" fill="#FF6C86"/>
<path d="M474.512 328.977C466.999 322.561 457.922 318.224 448.263 316.434C438.544 314.634 428.481 315.422 419.161 318.713L417.383 319.351L418.043 321.101L437.283 375.421L475.919 330.178L474.512 328.977ZM433.673 354.149L431.619 348.35C432.272 347.953 433.059 347.798 433.829 347.941C435.534 348.256 436.664 349.9 436.348 351.605C436.094 352.974 434.984 353.972 433.673 354.149ZM434.92 357.669C437.435 357.034 439.483 354.992 439.986 352.279C440.673 348.568 438.214 344.99 434.503 344.303C433.086 344.04 431.643 344.239 430.372 344.829L424.623 328.598C431.571 326.464 438.986 326.037 446.185 327.37C453.389 328.705 460.157 331.762 465.872 336.246L438.631 368.146L434.92 357.669ZM468.276 333.43C462.067 328.527 454.701 325.185 446.859 323.733C439.022 322.281 430.947 322.759 423.387 325.107L422.15 321.616C430.359 319.038 439.114 318.502 447.589 320.072C456.007 321.632 463.953 325.264 470.682 330.614L468.276 333.43Z" fill="#FF6C86"/>
<path d="M451.567 332.165C447.856 331.478 444.278 333.937 443.59 337.648C442.903 341.359 445.362 344.937 449.073 345.624C452.784 346.312 456.362 343.852 457.049 340.142C457.737 336.431 455.277 332.853 451.567 332.165ZM449.747 341.987C448.042 341.671 446.912 340.027 447.228 338.322C447.544 336.617 449.188 335.487 450.893 335.803C452.598 336.119 453.728 337.763 453.412 339.468C453.096 341.172 451.452 342.302 449.747 341.987Z" fill="#FF6C86"/>
<path d="M437.685 331.671L434.047 330.997L433.148 335.848L436.786 336.522L437.685 331.671Z" fill="#FF6C86"/>
<path d="M448.148 348.209L444.51 347.535L443.611 352.385L447.249 353.059L448.148 348.209Z" fill="#FF6C86"/>
<path d="M323.512 441.977C315.999 435.561 306.922 431.224 297.263 429.434C287.544 427.634 277.481 428.422 268.161 431.713L266.383 432.351L267.043 434.101L286.283 488.421L324.919 443.178L323.512 441.977ZM282.673 467.149L280.619 461.35C281.272 460.953 282.059 460.798 282.829 460.941C284.534 461.256 285.664 462.9 285.348 464.605C285.094 465.974 283.984 466.972 282.673 467.149ZM283.92 470.669C286.435 470.034 288.483 467.992 288.986 465.279C289.673 461.568 287.214 457.99 283.503 457.303C282.086 457.04 280.643 457.239 279.372 457.829L273.623 441.598C280.571 439.464 287.986 439.037 295.185 440.37C302.389 441.705 309.157 444.762 314.872 449.246L287.631 481.146L283.92 470.669ZM317.276 446.43C311.067 441.527 303.701 438.185 295.859 436.733C288.022 435.281 279.947 435.759 272.387 438.107L271.15 434.616C279.359 432.038 288.114 431.502 296.589 433.072C305.007 434.632 312.953 438.264 319.682 443.614L317.276 446.43Z" fill="#FF6C86"/>
<path d="M300.567 445.165C296.856 444.478 293.278 446.937 292.59 450.648C291.903 454.359 294.362 457.937 298.073 458.624C301.784 459.312 305.362 456.852 306.049 453.142C306.737 449.431 304.277 445.853 300.567 445.165ZM298.747 454.987C297.042 454.671 295.912 453.027 296.228 451.322C296.544 449.617 298.188 448.487 299.893 448.803C301.598 449.119 302.728 450.763 302.412 452.468C302.096 454.172 300.452 455.302 298.747 454.987Z" fill="#FF6C86"/>
<path d="M286.685 444.671L283.047 443.997L282.148 448.848L285.786 449.522L286.685 444.671Z" fill="#FF6C86"/>
<path d="M297.148 461.209L293.51 460.535L292.611 465.385L296.249 466.059L297.148 461.209Z" fill="#FF6C86"/>
<path d="M375.49 347.176C366.988 342.144 357.301 339.428 347.478 339.322C337.595 339.215 327.816 341.718 319.199 346.559L317.556 347.493L318.507 349.104L346.779 399.318L377.082 348.118L375.49 347.176ZM339.574 378.98L336.556 373.62C337.131 373.116 337.88 372.829 338.663 372.837C340.396 372.856 341.792 374.282 341.773 376.015C341.758 377.408 340.835 378.581 339.574 378.98ZM341.406 382.234C343.775 381.178 345.443 378.814 345.472 376.055C345.513 372.282 342.476 369.178 338.703 369.138C337.262 369.122 335.874 369.566 334.723 370.365L326.275 355.36C332.755 352.067 339.986 350.373 347.307 350.452C354.633 350.531 361.825 352.383 368.224 355.819L346.859 391.919L341.406 382.234ZM370.11 352.633C363.152 348.867 355.322 346.839 347.347 346.753C339.377 346.667 331.504 348.524 324.459 352.134L322.641 348.906C330.287 344.958 338.82 342.928 347.438 343.022C355.999 343.114 364.451 345.33 371.997 349.445L370.11 352.633Z" fill="#FF6C86"/>
<path d="M353.431 354.253C349.657 354.212 346.554 357.249 346.513 361.023C346.472 364.796 349.509 367.9 353.283 367.94C357.057 367.981 360.16 364.944 360.201 361.17C360.241 357.397 357.204 354.294 353.431 354.253ZM353.323 364.241C351.589 364.222 350.194 362.796 350.212 361.063C350.231 359.329 351.657 357.934 353.391 357.952C355.125 357.971 356.52 359.397 356.501 361.131C356.482 362.864 355.057 364.26 353.323 364.241Z" fill="#FF6C86"/>
<path d="M339.67 356.147L335.971 356.108L335.917 361.04L339.617 361.08L339.67 356.147Z" fill="#FF6C86"/>
<path d="M352.815 370.645L349.115 370.605L349.062 375.538L352.761 375.578L352.815 370.645Z" fill="#FF6C86"/>
<path d="M182.367 433.825C173.699 429.084 163.926 426.699 154.105 426.927C144.223 427.155 134.535 429.989 126.087 435.12L124.477 436.108L125.482 437.686L155.443 486.912L183.99 434.712L182.367 433.825ZM147.551 466.83L144.353 461.575C144.911 461.053 145.649 460.74 146.432 460.722C148.166 460.682 149.608 462.059 149.648 463.793C149.681 465.185 148.798 466.389 147.551 466.83ZM149.493 470.02C151.825 468.884 153.411 466.465 153.347 463.707C153.26 459.934 150.119 456.936 146.346 457.023C144.906 457.056 143.534 457.547 142.411 458.384L133.458 443.675C139.822 440.164 146.992 438.226 154.312 438.056C161.636 437.887 168.887 439.493 175.399 442.71L155.272 479.514L149.493 470.02ZM177.176 439.461C170.094 435.934 162.199 434.173 154.226 434.358C146.258 434.542 138.452 436.665 131.533 440.512L129.607 437.348C137.115 433.143 145.574 430.825 154.19 430.625C162.75 430.427 171.271 432.354 178.953 436.212L177.176 439.461Z" fill="#FF6C86"/>
<path d="M160.561 441.647C156.788 441.734 153.79 444.875 153.877 448.648C153.965 452.42 157.105 455.419 160.878 455.331C164.651 455.244 167.649 452.103 167.562 448.331C167.475 444.558 164.334 441.559 160.561 441.647ZM160.792 451.633C159.059 451.673 157.616 450.295 157.576 448.562C157.536 446.828 158.913 445.386 160.647 445.345C162.38 445.305 163.823 446.683 163.863 448.416C163.903 450.15 162.526 451.593 160.792 451.633Z" fill="#FF6C86"/>
<path d="M146.873 444.007L143.174 444.093L143.288 449.025L146.987 448.939L146.873 444.007Z" fill="#FF6C86"/>
<path d="M160.501 458.05L156.803 458.136L156.917 463.068L160.616 462.982L160.501 458.05Z" fill="#FF6C86"/>
<path d="M212.063 137.556C202.243 136.48 192.299 138.003 183.306 141.959C174.259 145.939 166.384 152.253 160.532 160.218L159.42 161.746L160.951 162.822L207.422 196.899L213.902 137.758L212.063 137.556ZM192.468 181.345L187.507 177.708C187.823 177.012 188.387 176.441 189.103 176.126C190.69 175.427 192.549 176.151 193.248 177.738C193.808 179.012 193.452 180.462 192.468 181.345ZM195.479 183.554C197.201 181.614 197.745 178.773 196.634 176.248C195.114 172.793 191.068 171.219 187.613 172.739C186.295 173.319 185.214 174.296 184.495 175.499L170.609 165.316C175.152 159.643 181.041 155.117 187.743 152.168C194.449 149.218 201.764 147.937 209.011 148.428L204.442 190.126L195.479 183.554ZM209.414 144.747C201.522 144.188 193.553 145.57 186.253 148.782C178.957 151.992 172.551 156.931 167.623 163.126L164.636 160.936C169.972 154.186 176.907 148.816 184.796 145.345C192.633 141.897 201.246 140.429 209.818 141.065L209.414 144.747Z" fill="#FF6C86"/>
<path d="M194.889 153.104C191.434 154.624 189.86 158.67 191.38 162.125C192.9 165.579 196.947 167.153 200.401 165.633C203.855 164.113 205.429 160.067 203.91 156.612C202.39 153.158 198.343 151.584 194.889 153.104ZM198.911 162.247C197.324 162.945 195.465 162.222 194.767 160.635C194.068 159.048 194.791 157.189 196.379 156.49C197.966 155.792 199.825 156.515 200.523 158.102C201.221 159.689 200.498 161.549 198.911 162.247Z" fill="#FF6C86"/>
<path d="M183.135 160.507L179.749 161.997L181.736 166.512L185.122 165.022L183.135 160.507Z" fill="#FF6C86"/>
<path d="M201.091 168.29L197.704 169.78L199.691 174.295L203.077 172.806L201.091 168.29Z" fill="#FF6C86"/>
<path d="M79.2408 430.905C74.1444 422.442 66.9066 415.455 58.3098 410.7C49.6605 405.917 39.8652 403.48 29.9827 403.653L28.0937 403.695L28.1662 405.564L29.227 463.181L80.195 432.49L79.2408 430.905ZM32.5347 441.859L32.4214 435.709C33.1666 435.539 33.962 435.641 34.6471 436.02C36.1645 436.859 36.716 438.776 35.8769 440.293C35.203 441.512 33.8338 442.106 32.5347 441.859ZM32.6034 445.593C35.1899 445.787 37.7792 444.498 39.1145 442.083C40.9409 438.781 39.7401 434.608 36.4377 432.782C35.1771 432.085 33.7448 431.817 32.3528 431.974L32.0357 414.758C39.3021 414.933 46.4709 416.873 52.8782 420.417C59.2895 423.963 64.7416 429.005 68.7439 435.066L32.8081 456.706L32.6034 445.593ZM71.916 433.156C67.5776 426.54 61.6479 421.039 54.6689 417.179C47.6938 413.322 39.8826 411.221 31.9677 411.055L31.8994 407.352C40.5026 407.505 48.9772 409.767 56.5193 413.938C64.0115 418.082 70.3996 424.042 75.0893 431.246L71.916 433.156Z" fill="#FF6C86"/>
<path d="M56.4658 426.668C53.1633 424.842 48.9906 426.042 47.1642 429.345C45.3377 432.647 46.5385 436.82 49.841 438.647C53.1435 440.473 57.3161 439.272 59.1426 435.97C60.9691 432.667 59.7682 428.495 56.4658 426.668ZM51.6315 435.409C50.1142 434.57 49.5625 432.653 50.4017 431.135C51.2409 429.618 53.1579 429.066 54.6752 429.906C56.1926 430.745 56.7442 432.662 55.9051 434.179C55.0659 435.696 53.1488 436.248 51.6315 435.409Z" fill="#FF6C86"/>
<path d="M43.4534 421.806L40.2158 420.016L37.8284 424.333L41.066 426.123L43.4534 421.806Z" fill="#FF6C86"/>
<path d="M48.1448 440.805L44.9072 439.015L42.5198 443.331L45.7574 445.122L48.1448 440.805Z" fill="#FF6C86"/>
<path d="M186.149 37.7177C176.705 34.8162 166.652 34.4436 157.077 36.6402C147.443 38.8503 138.522 43.5727 131.278 50.2968L129.899 51.5889L131.201 52.9327L170.444 95.1324L187.917 38.261L186.149 37.7177ZM158.677 77.0464L154.488 72.5417C154.929 71.9178 155.59 71.4629 156.353 71.2878C158.043 70.9001 159.733 71.9596 160.121 73.6496C160.432 75.0068 159.809 76.3636 158.677 77.0464ZM161.22 79.7813C163.276 78.1994 164.344 75.5114 163.727 72.8222C162.883 69.1439 159.204 66.8379 155.526 67.6817C154.121 68.0038 152.876 68.7602 151.944 69.8063L140.218 57.1967C145.746 52.4776 152.38 49.1384 159.517 47.5012C166.658 45.863 174.083 45.979 181.109 47.8222L168.789 87.9204L161.22 79.7813ZM182.196 44.2828C174.55 42.2509 166.463 42.1119 158.69 43.8951C150.921 45.6774 143.701 49.3257 137.697 54.4849L135.174 51.7725C141.683 46.1447 149.504 42.1734 157.904 40.2462C166.249 38.3318 174.984 38.5073 183.284 40.742L182.196 44.2828Z" fill="#FF6C86"/>
<path d="M166.36 49.7625C162.682 50.6063 160.376 54.2854 161.22 57.9637C162.064 61.6421 165.743 63.9481 169.421 63.1042C173.099 62.2604 175.405 58.5814 174.562 54.903C173.718 51.2246 170.039 48.9186 166.36 49.7625ZM168.594 59.4982C166.904 59.8859 165.214 58.8265 164.826 57.1365C164.438 55.4465 165.498 53.7562 167.188 53.3685C168.878 52.9808 170.568 54.0402 170.956 55.7302C171.343 57.4203 170.284 59.1105 168.594 59.4982Z" fill="#FF6C86"/>
<path d="M153.425 54.8261L149.819 55.6533L150.922 60.4613L154.528 59.6341L153.425 54.8261Z" fill="#FF6C86"/>
<path d="M169.598 65.8435L165.992 66.6708L167.095 71.4788L170.701 70.6515L169.598 65.8435Z" fill="#FF6C86"/>
<path d="M74.1864 123.53L78.3852 114.799C78.5198 114.519 78.5149 114.192 78.372 113.916C78.229 113.64 77.9646 113.448 77.6585 113.396L69.9496 112.101C69.5158 112.028 69.0861 112.25 68.8955 112.647L68.2148 114.062C67.6898 113.652 67.1401 113.273 66.5678 112.928L69.6547 106.509C69.7837 106.24 69.7847 105.928 69.6579 105.659C69.5307 105.389 69.289 105.192 69 105.121L61.5481 103.292C61.0942 103.18 60.6246 103.402 60.4221 103.823L58.0204 108.817C57.3936 108.585 56.7542 108.393 56.1058 108.239L57.3376 105.677C57.474 105.394 57.4672 105.062 57.3189 104.784C57.1707 104.506 56.899 104.316 56.5874 104.271L48.7941 103.154C48.3675 103.093 47.9504 103.316 47.7636 103.704L44.9839 109.485C41.6538 111.114 38.9453 113.839 37.3314 117.191C37.3155 117.223 37.3011 117.256 37.2888 117.291L25.5552 149.798C25.3832 150.274 25.5997 150.804 26.0563 151.023L53.556 164.248C54.0127 164.468 54.5616 164.306 54.8264 163.874L72.8932 134.413C72.9133 134.38 72.9311 134.346 72.9471 134.311C74.5547 130.96 74.9908 127.146 74.1864 123.53ZM70.3546 114.172L76.0348 115.127L68.3838 131.037L65.6774 129.735C65.2154 129.513 64.66 129.681 64.3988 130.122L63.0989 132.319C62.4981 133.334 61.6077 134.067 60.5936 134.47L70.3546 114.172V114.172ZM65.7074 114.717C66.2774 115.07 66.8212 115.463 67.3355 115.891L58.2416 134.801C57.6564 134.744 57.0704 134.585 56.5082 134.315L56.3252 134.227L65.7075 114.717L65.7074 114.717ZM61.8554 105.402L67.3464 106.75L54.5444 133.371L49.5582 130.973L61.8554 105.402V105.402ZM55.2264 110.068C55.8815 110.202 56.5277 110.382 57.1598 110.606L47.7775 130.116L47.5947 130.028C47.0323 129.758 46.5425 129.399 46.1325 128.978L55.2264 110.068ZM49.2304 105.213L54.9726 106.036L44.9233 126.933C44.6048 125.89 44.6215 124.737 45.0391 123.634L45.9433 121.247C46.1248 120.767 45.9096 120.229 45.4476 120.007L42.7419 118.705L49.2304 105.213ZM43.3981 112.781L40.9611 117.849L39.5697 117.18C40.5413 115.468 41.8466 113.971 43.3981 112.781ZM53.6082 162.08L27.7165 149.629L29.4698 144.772L56.3079 157.678L53.6082 162.08ZM57.3461 155.985L30.1441 142.903L33.9202 132.442L63.1604 146.504L57.3461 155.985ZM64.1988 144.811L34.5945 130.574L38.7755 118.991L43.7741 121.395L43.1911 122.934C42.5627 124.593 42.5791 126.415 43.2376 128.062C43.8961 129.71 45.1392 131.04 46.7383 131.809L55.6518 136.096C57.2508 136.865 59.0665 137.005 60.7646 136.491C62.4627 135.977 63.8955 134.852 64.7993 133.326L65.6375 131.909L70.6362 134.313L64.1988 144.811ZM70.1645 131.893L72.6001 126.828C72.6393 128.782 72.2849 130.735 71.5547 132.562L70.1645 131.893Z" fill="#FF6C86"/>
<path d="M150.186 221.53L154.385 212.799C154.52 212.519 154.515 212.192 154.372 211.916C154.229 211.64 153.965 211.448 153.659 211.396L145.95 210.101C145.516 210.028 145.086 210.25 144.895 210.647L144.215 212.062C143.69 211.652 143.14 211.273 142.568 210.928L145.655 204.509C145.784 204.24 145.785 203.928 145.658 203.659C145.531 203.389 145.289 203.192 145 203.121L137.548 201.292C137.094 201.18 136.625 201.402 136.422 201.823L134.02 206.817C133.394 206.585 132.754 206.393 132.106 206.239L133.338 203.677C133.474 203.394 133.467 203.062 133.319 202.784C133.171 202.506 132.899 202.316 132.587 202.271L124.794 201.154C124.367 201.093 123.95 201.316 123.764 201.704L120.984 207.485C117.654 209.114 114.945 211.839 113.331 215.191C113.316 215.223 113.301 215.256 113.289 215.291L101.555 247.798C101.383 248.274 101.6 248.804 102.056 249.023L129.556 262.248C130.013 262.468 130.562 262.306 130.826 261.874L148.893 232.413C148.913 232.38 148.931 232.346 148.947 232.311C150.555 228.96 150.991 225.146 150.186 221.53ZM146.355 212.172L152.035 213.127L144.384 229.037L141.677 227.735C141.215 227.513 140.66 227.681 140.399 228.122L139.099 230.319C138.498 231.334 137.608 232.067 136.594 232.47L146.355 212.172V212.172ZM141.707 212.717C142.277 213.07 142.821 213.463 143.336 213.891L134.242 232.801C133.656 232.744 133.07 232.585 132.508 232.315L132.325 232.227L141.707 212.717L141.707 212.717ZM137.855 203.402L143.346 204.75L130.544 231.371L125.558 228.973L137.855 203.402V203.402ZM131.226 208.068C131.881 208.202 132.528 208.382 133.16 208.606L123.778 228.116L123.595 228.028C123.032 227.758 122.543 227.399 122.133 226.978L131.226 208.068ZM125.23 203.213L130.973 204.036L120.923 224.933C120.605 223.89 120.621 222.737 121.039 221.634L121.943 219.247C122.125 218.767 121.91 218.229 121.448 218.007L118.742 216.705L125.23 203.213ZM119.398 210.781L116.961 215.849L115.57 215.18C116.541 213.468 117.847 211.971 119.398 210.781ZM129.608 260.08L103.716 247.629L105.47 242.772L132.308 255.678L129.608 260.08ZM133.346 253.985L106.144 240.903L109.92 230.442L139.16 244.504L133.346 253.985ZM140.199 242.811L110.595 228.574L114.776 216.991L119.774 219.395L119.191 220.934C118.563 222.593 118.579 224.415 119.238 226.062C119.896 227.71 121.139 229.04 122.738 229.809L131.652 234.096C133.251 234.865 135.066 235.005 136.765 234.491C138.463 233.977 139.895 232.852 140.799 231.326L141.638 229.909L146.636 232.313L140.199 242.811ZM146.165 229.893L148.6 224.828C148.639 226.782 148.285 228.735 147.555 230.562L146.165 229.893Z" fill="#FF6C86"/>
<path d="M274.186 266.53L278.385 257.799C278.52 257.519 278.515 257.192 278.372 256.916C278.229 256.64 277.965 256.448 277.659 256.396L269.95 255.101C269.516 255.028 269.086 255.25 268.895 255.647L268.215 257.062C267.69 256.652 267.14 256.273 266.568 255.928L269.655 249.509C269.784 249.24 269.785 248.928 269.658 248.659C269.531 248.389 269.289 248.192 269 248.121L261.548 246.292C261.094 246.18 260.625 246.402 260.422 246.823L258.02 251.817C257.394 251.585 256.754 251.393 256.106 251.239L257.338 248.677C257.474 248.394 257.467 248.062 257.319 247.784C257.171 247.506 256.899 247.316 256.587 247.271L248.794 246.154C248.367 246.093 247.95 246.316 247.764 246.704L244.984 252.485C241.654 254.114 238.945 256.839 237.331 260.191C237.316 260.223 237.301 260.256 237.289 260.291L225.555 292.798C225.383 293.274 225.6 293.804 226.056 294.023L253.556 307.248C254.013 307.468 254.562 307.306 254.826 306.874L272.893 277.413C272.913 277.38 272.931 277.346 272.947 277.311C274.555 273.96 274.991 270.146 274.186 266.53ZM270.355 257.172L276.035 258.127L268.384 274.037L265.677 272.735C265.215 272.513 264.66 272.681 264.399 273.122L263.099 275.319C262.498 276.334 261.608 277.067 260.594 277.47L270.355 257.172V257.172ZM265.707 257.717C266.277 258.07 266.821 258.463 267.336 258.891L258.242 277.801C257.656 277.744 257.07 277.585 256.508 277.315L256.325 277.227L265.707 257.717L265.707 257.717ZM261.855 248.402L267.346 249.75L254.544 276.371L249.558 273.973L261.855 248.402V248.402ZM255.226 253.068C255.881 253.202 256.528 253.382 257.16 253.606L247.778 273.116L247.595 273.028C247.032 272.758 246.543 272.399 246.133 271.978L255.226 253.068ZM249.23 248.213L254.973 249.036L244.923 269.933C244.605 268.89 244.621 267.737 245.039 266.634L245.943 264.247C246.125 263.767 245.91 263.229 245.448 263.007L242.742 261.705L249.23 248.213ZM243.398 255.781L240.961 260.849L239.57 260.18C240.541 258.468 241.847 256.971 243.398 255.781ZM253.608 305.08L227.716 292.629L229.47 287.772L256.308 300.678L253.608 305.08ZM257.346 298.985L230.144 285.903L233.92 275.442L263.16 289.504L257.346 298.985ZM264.199 287.811L234.595 273.574L238.776 261.991L243.774 264.395L243.191 265.934C242.563 267.593 242.579 269.415 243.238 271.062C243.896 272.71 245.139 274.04 246.738 274.809L255.652 279.096C257.251 279.865 259.066 280.005 260.765 279.491C262.463 278.977 263.895 277.852 264.799 276.326L265.638 274.909L270.636 277.313L264.199 287.811ZM270.165 274.893L272.6 269.828C272.639 271.782 272.285 273.735 271.555 275.562L270.165 274.893Z" fill="#FF6C86"/>
<path d="M148.518 325.599L148.853 315.916C148.864 315.606 148.728 315.308 148.486 315.113C148.244 314.918 147.925 314.848 147.624 314.924L140.045 316.837C139.618 316.944 139.314 317.321 139.299 317.76L139.245 319.33C138.599 319.165 137.943 319.039 137.28 318.953L137.527 311.835C137.537 311.537 137.412 311.251 137.188 311.055C136.963 310.86 136.663 310.776 136.37 310.827L128.811 312.148C128.35 312.228 128.009 312.62 127.993 313.087L127.802 318.625C127.135 318.665 126.472 318.745 125.816 318.865L125.914 316.025C125.925 315.71 125.786 315.409 125.538 315.214C125.291 315.02 124.966 314.954 124.662 315.039L117.077 317.149C116.662 317.264 116.37 317.636 116.355 318.066L116.133 324.476C113.739 327.307 112.354 330.891 112.224 334.609C112.222 334.645 112.222 334.681 112.225 334.717L114.547 369.199C114.581 369.704 114.992 370.102 115.499 370.12L145.995 371.175C146.501 371.193 146.939 370.824 147.008 370.322L151.709 336.084C151.714 336.045 151.716 336.007 151.717 335.968C151.842 332.254 150.708 328.587 148.518 325.599ZM141.248 318.571L146.833 317.162L146.222 334.805L143.221 334.701C142.709 334.683 142.268 335.06 142.206 335.57L141.899 338.103C141.757 339.274 141.236 340.303 140.469 341.08L141.248 318.571V318.571ZM137.212 320.937C137.876 321.032 138.532 321.173 139.175 321.358L138.449 342.328C137.89 342.511 137.29 342.602 136.666 342.58L136.463 342.573L137.212 320.937L137.212 320.937ZM129.94 313.956L135.51 312.983L134.488 342.505L128.959 342.313L129.94 313.956V313.956ZM125.746 320.893C126.4 320.753 127.064 320.658 127.733 320.609L126.984 342.245L126.782 342.238C126.158 342.217 125.565 342.085 125.02 341.864L125.746 320.893ZM118.304 318.858L123.893 317.304L123.091 340.478C122.38 339.65 121.932 338.588 121.871 337.41L121.739 334.861C121.713 334.349 121.299 333.942 120.787 333.925L117.787 333.821L118.304 318.858ZM116.006 328.133L115.812 333.752L114.269 333.699C114.47 331.741 115.064 329.845 116.006 328.133ZM145.171 369.17L116.459 368.176L116.112 363.023L145.874 364.053L145.171 369.17ZM146.144 362.086L115.978 361.042L115.231 349.945L147.657 351.067L146.144 362.086ZM147.927 349.099L115.097 347.963L114.269 335.677L119.813 335.868L119.898 337.512C119.989 339.284 120.736 340.945 122.001 342.189C123.267 343.433 124.94 344.152 126.713 344.213L136.598 344.555C138.371 344.617 140.09 344.015 141.438 342.862C142.786 341.708 143.646 340.103 143.86 338.342L144.058 336.707L149.602 336.899L147.927 349.099ZM148.197 334.873L148.392 329.257C149.213 331.03 149.673 332.96 149.739 334.927L148.197 334.873Z" fill="#FF6C86"/>
<path d="M446.518 429.599L446.853 419.916C446.864 419.606 446.728 419.308 446.486 419.113C446.244 418.918 445.925 418.848 445.624 418.924L438.045 420.837C437.618 420.944 437.314 421.321 437.299 421.76L437.245 423.33C436.599 423.165 435.943 423.039 435.28 422.953L435.527 415.835C435.537 415.537 435.412 415.251 435.188 415.055C434.963 414.86 434.663 414.776 434.37 414.827L426.811 416.148C426.35 416.228 426.009 416.62 425.993 417.087L425.802 422.625C425.135 422.665 424.472 422.745 423.816 422.865L423.914 420.025C423.925 419.71 423.786 419.409 423.538 419.214C423.291 419.02 422.966 418.954 422.662 419.039L415.077 421.149C414.662 421.264 414.37 421.636 414.355 422.066L414.133 428.476C411.739 431.307 410.354 434.891 410.224 438.609C410.222 438.645 410.222 438.681 410.225 438.717L412.547 473.199C412.581 473.704 412.992 474.102 413.499 474.12L443.995 475.175C444.501 475.193 444.939 474.824 445.008 474.322L449.709 440.084C449.714 440.045 449.716 440.007 449.717 439.968C449.842 436.254 448.708 432.587 446.518 429.599ZM439.248 422.571L444.833 421.162L444.222 438.805L441.221 438.701C440.709 438.683 440.268 439.06 440.206 439.57L439.899 442.103C439.757 443.274 439.236 444.303 438.469 445.08L439.248 422.571V422.571ZM435.212 424.937C435.876 425.032 436.532 425.173 437.175 425.358L436.449 446.328C435.89 446.511 435.29 446.602 434.666 446.58L434.463 446.573L435.212 424.937L435.212 424.937ZM427.94 417.956L433.51 416.983L432.488 446.505L426.959 446.313L427.94 417.956V417.956ZM423.746 424.893C424.4 424.753 425.064 424.658 425.733 424.609L424.984 446.245L424.782 446.238C424.158 446.217 423.565 446.085 423.02 445.864L423.746 424.893ZM416.304 422.858L421.893 421.304L421.091 444.478C420.38 443.65 419.932 442.588 419.871 441.41L419.739 438.861C419.713 438.349 419.299 437.942 418.787 437.925L415.787 437.821L416.304 422.858ZM414.006 432.133L413.812 437.752L412.269 437.699C412.47 435.741 413.064 433.845 414.006 432.133ZM443.171 473.17L414.459 472.176L414.112 467.023L443.874 468.053L443.171 473.17ZM444.144 466.086L413.978 465.042L413.231 453.945L445.657 455.067L444.144 466.086ZM445.927 453.099L413.097 451.963L412.269 439.677L417.813 439.868L417.898 441.512C417.989 443.284 418.736 444.945 420.001 446.189C421.267 447.433 422.94 448.152 424.713 448.213L434.598 448.555C436.371 448.617 438.09 448.015 439.438 446.862C440.786 445.708 441.646 444.103 441.86 442.342L442.058 440.707L447.602 440.899L445.927 453.099ZM446.197 438.873L446.392 433.257C447.213 435.03 447.673 436.96 447.739 438.927L446.197 438.873Z" fill="#FF6C86"/>
<path d="M468.518 218.599L468.853 208.916C468.864 208.606 468.728 208.308 468.486 208.113C468.244 207.918 467.925 207.848 467.624 207.924L460.045 209.837C459.618 209.944 459.314 210.321 459.299 210.76L459.245 212.33C458.599 212.165 457.943 212.039 457.28 211.953L457.527 204.835C457.537 204.537 457.412 204.251 457.188 204.055C456.963 203.86 456.663 203.776 456.37 203.827L448.811 205.148C448.35 205.228 448.009 205.62 447.993 206.087L447.802 211.625C447.135 211.665 446.472 211.745 445.816 211.865L445.914 209.025C445.925 208.71 445.786 208.409 445.538 208.214C445.291 208.02 444.966 207.954 444.662 208.039L437.077 210.149C436.662 210.264 436.37 210.636 436.355 211.066L436.133 217.476C433.739 220.307 432.354 223.891 432.224 227.609C432.222 227.645 432.222 227.681 432.225 227.717L434.547 262.199C434.581 262.704 434.992 263.102 435.499 263.12L465.995 264.175C466.501 264.193 466.939 263.824 467.008 263.322L471.709 229.084C471.714 229.045 471.716 229.007 471.717 228.968C471.842 225.254 470.708 221.587 468.518 218.599ZM461.248 211.571L466.833 210.162L466.222 227.805L463.221 227.701C462.709 227.683 462.268 228.06 462.206 228.57L461.899 231.103C461.757 232.274 461.236 233.303 460.469 234.08L461.248 211.571V211.571ZM457.212 213.937C457.876 214.032 458.532 214.173 459.175 214.358L458.449 235.328C457.89 235.511 457.29 235.602 456.666 235.58L456.463 235.573L457.212 213.937L457.212 213.937ZM449.94 206.956L455.51 205.983L454.488 235.505L448.959 235.313L449.94 206.956V206.956ZM445.746 213.893C446.4 213.753 447.064 213.658 447.733 213.609L446.984 235.245L446.782 235.238C446.158 235.217 445.565 235.085 445.02 234.864L445.746 213.893ZM438.304 211.858L443.893 210.304L443.091 233.478C442.38 232.65 441.932 231.588 441.871 230.41L441.739 227.861C441.713 227.349 441.299 226.942 440.787 226.925L437.787 226.821L438.304 211.858ZM436.006 221.133L435.812 226.752L434.269 226.699C434.47 224.741 435.064 222.845 436.006 221.133ZM465.171 262.17L436.459 261.176L436.112 256.023L465.874 257.053L465.171 262.17ZM466.144 255.086L435.978 254.042L435.231 242.945L467.657 244.067L466.144 255.086ZM467.927 242.099L435.097 240.963L434.269 228.677L439.813 228.868L439.898 230.512C439.989 232.284 440.736 233.945 442.001 235.189C443.267 236.433 444.94 237.152 446.713 237.213L456.598 237.555C458.371 237.617 460.09 237.015 461.438 235.862C462.786 234.708 463.646 233.103 463.86 231.342L464.058 229.707L469.602 229.899L467.927 242.099ZM468.197 227.873L468.392 222.257C469.213 224.03 469.673 225.96 469.739 227.927L468.197 227.873Z" fill="#FF6C86"/>
<path d="M475.518 37.5988L475.853 27.9162C475.864 27.6058 475.728 27.3084 475.486 27.1133C475.244 26.9182 474.925 26.8484 474.624 26.9242L467.045 28.8366C466.618 28.9442 466.314 29.3208 466.299 29.7604L466.245 31.3301C465.599 31.1653 464.943 31.0389 464.28 30.9532L464.527 23.8348C464.537 23.5373 464.412 23.2508 464.188 23.0554C463.963 22.8598 463.663 22.7762 463.37 22.8273L455.811 24.1476C455.35 24.228 455.009 24.6197 454.993 25.0866L454.802 30.625C454.135 30.6648 453.472 30.7455 452.816 30.8653L452.914 28.0247C452.925 27.71 452.786 27.409 452.538 27.2143C452.291 27.0196 451.966 26.9543 451.662 27.0386L444.077 29.1486C443.662 29.264 443.37 29.6356 443.355 30.0664L443.133 36.4764C440.739 39.3074 439.354 42.8907 439.224 46.6087C439.222 46.6447 439.222 46.681 439.225 46.7174L441.547 81.1988C441.581 81.7045 441.992 82.1022 442.499 82.1198L472.995 83.1751C473.501 83.1927 473.939 82.8241 474.008 82.3222L478.709 48.0838C478.714 48.0452 478.716 48.0068 478.717 47.9684C478.842 44.2542 477.708 40.5869 475.518 37.5988ZM468.248 30.5708L473.833 29.1616L473.222 46.805L470.221 46.7011C469.709 46.6834 469.268 47.0605 469.206 47.5696L468.899 50.1034C468.757 51.2743 468.236 52.3035 467.469 53.0796L468.248 30.5708V30.5708ZM464.212 32.9375C464.876 33.032 465.532 33.173 466.175 33.3579L465.449 54.3284C464.89 54.5115 464.29 54.6018 463.666 54.5802L463.463 54.5732L464.212 32.9375L464.212 32.9375ZM456.94 25.9561L462.51 24.9834L461.488 54.5048L455.959 54.3135L456.94 25.9561V25.9561ZM452.746 32.8932C453.4 32.7532 454.064 32.6579 454.733 32.6094L453.984 54.2451L453.782 54.2381C453.158 54.2165 452.565 54.0849 452.02 53.8636L452.746 32.8932ZM445.304 30.8584L450.893 29.3037L450.091 52.4776C449.38 51.6504 448.932 50.5879 448.871 49.4101L448.739 46.861C448.713 46.349 448.299 45.9423 447.787 45.9245L444.787 45.8207L445.304 30.8584ZM443.006 40.1327L442.812 45.7525L441.269 45.6991C441.47 43.7407 442.064 41.8455 443.006 40.1327ZM472.171 81.1696L443.459 80.1759L443.112 75.0232L472.874 76.0532L472.171 81.1696ZM473.144 74.0856L442.978 73.0416L442.231 61.945L474.657 63.0671L473.144 74.0856ZM474.927 61.0993L442.097 59.9632L441.269 47.6765L446.813 47.8684L446.898 49.5123C446.989 51.2841 447.736 52.9451 449.001 54.189C450.267 55.4328 451.94 56.1517 453.713 56.2131L463.598 56.5551C465.371 56.6165 467.09 56.0151 468.438 54.8617C469.786 53.7083 470.646 52.1029 470.86 50.3416L471.058 48.7074L476.602 48.8993L474.927 61.0993ZM475.197 46.8732L475.392 41.2566C476.213 43.0297 476.673 44.9605 476.739 46.9266L475.197 46.8732Z" fill="#FF6C86"/>
<path d="M309.518 129.599L309.853 119.916C309.864 119.606 309.728 119.308 309.486 119.113C309.244 118.918 308.925 118.848 308.624 118.924L301.045 120.837C300.618 120.944 300.314 121.321 300.299 121.76L300.245 123.33C299.599 123.165 298.943 123.039 298.28 122.953L298.527 115.835C298.537 115.537 298.412 115.251 298.188 115.055C297.963 114.86 297.663 114.776 297.37 114.827L289.811 116.148C289.35 116.228 289.009 116.62 288.993 117.087L288.802 122.625C288.135 122.665 287.472 122.745 286.816 122.865L286.914 120.025C286.925 119.71 286.786 119.409 286.538 119.214C286.291 119.02 285.966 118.954 285.662 119.039L278.077 121.149C277.662 121.264 277.37 121.636 277.355 122.066L277.133 128.476C274.739 131.307 273.354 134.891 273.224 138.609C273.222 138.645 273.222 138.681 273.225 138.717L275.547 173.199C275.581 173.704 275.992 174.102 276.499 174.12L306.995 175.175C307.501 175.193 307.939 174.824 308.008 174.322L312.709 140.084C312.714 140.045 312.716 140.007 312.717 139.968C312.842 136.254 311.708 132.587 309.518 129.599ZM302.248 122.571L307.833 121.162L307.222 138.805L304.221 138.701C303.709 138.683 303.268 139.06 303.206 139.57L302.899 142.103C302.757 143.274 302.236 144.303 301.469 145.08L302.248 122.571V122.571ZM298.212 124.937C298.876 125.032 299.532 125.173 300.175 125.358L299.449 146.328C298.89 146.511 298.29 146.602 297.666 146.58L297.463 146.573L298.212 124.937L298.212 124.937ZM290.94 117.956L296.51 116.983L295.488 146.505L289.959 146.313L290.94 117.956V117.956ZM286.746 124.893C287.4 124.753 288.064 124.658 288.733 124.609L287.984 146.245L287.782 146.238C287.158 146.217 286.565 146.085 286.02 145.864L286.746 124.893ZM279.304 122.858L284.893 121.304L284.091 144.478C283.38 143.65 282.932 142.588 282.871 141.41L282.739 138.861C282.713 138.349 282.299 137.942 281.787 137.925L278.787 137.821L279.304 122.858ZM277.006 132.133L276.812 137.752L275.269 137.699C275.47 135.741 276.064 133.845 277.006 132.133ZM306.171 173.17L277.459 172.176L277.112 167.023L306.874 168.053L306.171 173.17ZM307.144 166.086L276.978 165.042L276.231 153.945L308.657 155.067L307.144 166.086ZM308.927 153.099L276.097 151.963L275.269 139.677L280.813 139.868L280.898 141.512C280.989 143.284 281.736 144.945 283.001 146.189C284.267 147.433 285.94 148.152 287.713 148.213L297.598 148.555C299.371 148.617 301.09 148.015 302.438 146.862C303.786 145.708 304.646 144.103 304.86 142.342L305.058 140.707L310.602 140.899L308.927 153.099ZM309.197 138.873L309.392 133.257C310.213 135.03 310.673 136.96 310.739 138.927L309.197 138.873Z" fill="#FF6C86"/>
<path d="M274.417 19.3947L274.671 9.70971C274.68 9.39915 274.541 9.1029 274.298 8.90987C274.054 8.71672 273.735 8.64957 273.434 8.72782L265.871 10.703C265.445 10.814 265.144 11.1932 265.133 11.6328L265.091 13.203C264.444 13.0435 263.788 12.9226 263.124 12.8423L263.312 5.72209C263.319 5.42453 263.193 5.13914 262.967 4.94551C262.74 4.75187 262.439 4.67067 262.146 4.72428L254.598 6.107C254.139 6.19126 253.801 6.58575 253.789 7.05282L253.643 12.5926C252.976 12.6379 252.314 12.7241 251.66 12.8493L251.734 10.008C251.743 9.69321 251.601 9.39335 251.352 9.20075C251.103 9.00804 250.777 8.94542 250.474 9.03229L242.907 11.205C242.493 11.3238 242.203 11.6978 242.192 12.1287L242.023 18.5403C239.653 21.3911 238.297 24.9857 238.198 28.7046C238.197 28.7407 238.197 28.7769 238.2 28.8133L240.808 63.2744C240.846 63.7797 241.26 64.174 241.767 64.1874L272.271 64.9904C272.777 65.0037 273.212 64.6316 273.276 64.1291L277.694 29.853C277.698 29.8143 277.701 29.7759 277.701 29.7375C277.795 26.0224 276.631 22.3646 274.417 19.3947ZM267.089 12.4271L272.662 10.9717L272.197 28.6196L269.195 28.5406C268.683 28.5271 268.245 28.9078 268.187 29.4174L267.901 31.9537C267.768 33.1257 267.256 34.1591 266.496 34.9415L267.089 12.4271V12.4271ZM263.072 14.8271C263.737 14.9161 264.394 15.0517 265.038 15.2312L264.486 36.2071C263.929 36.3948 263.329 36.49 262.706 36.4736L262.503 36.4682L263.072 14.8271L263.072 14.8271ZM255.743 7.9061L261.304 6.88737L260.527 36.4162L254.996 36.2706L255.743 7.9061V7.9061ZM251.606 14.8777C252.259 14.7322 252.922 14.6315 253.591 14.5775L253.021 36.2187L252.818 36.2133C252.195 36.1969 251.601 36.0701 251.054 35.8534L251.606 14.8777ZM244.148 12.9045L249.724 11.3036L249.114 34.4834C248.396 33.6621 247.939 32.6033 247.868 31.4261L247.715 28.8781C247.685 28.3664 247.268 27.9631 246.755 27.9496L243.754 27.8706L244.148 12.9045ZM241.927 22.1976L241.779 27.8187L240.235 27.7781C240.421 25.8181 240.998 23.9181 241.927 22.1976ZM271.43 62.9917L242.71 62.2356L242.321 57.086L272.091 57.8696L271.43 62.9917ZM272.344 55.8999L242.171 55.1056L241.332 44.0155L273.766 44.8693L272.344 55.8999ZM274.02 42.8993L241.182 42.0349L240.252 29.7555L245.797 29.9014L245.896 31.5446C246.002 33.3156 246.763 34.9704 248.038 36.2038C249.313 37.4371 250.993 38.1421 252.766 38.1888L262.654 38.449C264.427 38.4957 266.141 37.8801 267.48 36.7156C268.818 35.5511 269.665 33.9386 269.864 32.1756L270.049 30.5398L275.594 30.6858L274.02 42.8993ZM274.172 28.6715L274.32 23.0534C275.156 24.8197 275.632 26.7466 275.714 28.712L274.172 28.6715Z" fill="#FF6C86"/>
</svg>
